# xmcd CD database file
#
# Track frame offsets:
#	150
#	14589
#	29397
#	44669
#	58911
#	72285
#	80229
#	95271
#	103449
#	115975
#	152578
#	169305
#
# Disc length: 2361 seconds
#
# Revision: 0
# Processed by: cddbd v1.5.2PL0 Copyright (c) Steve Scherf et al.
# Submitted via: CDex 1.51
#
DISCID=ad09370c
DTITLE=Billie Holiday - The Essentials
DYEAR=1900
DGENRE=Jazz
TTITLE0=Any Old Time
TTITLE1=Lover Man
TTITLE2=Don't Explain
TTITLE3=God Bless The Child
TTITLE4=My Man
TTITLE5=All Of Me
TTITLE6=They Can't Take That Away From Me
TTITLE7=Swing, Brother, Swing
TTITLE8=I Can't Get Started
TTITLE9=Fine And Mellow
TTITLE10=The Blues Are Brewin'
TTITLE11=Do You Know What It Means To Miss New Orleans?
EXTD=
EXTT0=
EXTT1=
EXTT2=
EXTT3=
EXTT4=
EXTT5=
EXTT6=
EXTT7=
EXTT8=
EXTT9=
EXTT10=
EXTT11=
PLAYORDER=
